<?xml version="1.0" encoding="UTF-8"?>
<svg xmlns="http://www.w3.org/2000/svg" xmlns:xlink="http://www.w3.org/1999/xlink" viewBox="0 0 48 48" width="48px" height="48px">
<g id="surface67927757">
<path style=" stroke:none;fill-rule:nonzero;fill:rgb(0%,0%,0%);fill-opacity:1;" d="M 43 35.113281 L 43 13.335938 L 24 2.445312 L 5 13.335938 L 5 35.113281 L 24 46 Z M 43 35.113281 "/>
<path style=" stroke:none;fill-rule:nonzero;fill:rgb(100%,100%,100%);fill-opacity:1;" d="M 32.5 13 C 31.117188 13 30 14.117188 30 15.5 L 30 26.777344 L 18.984375 14.453125 L 18.851562 14.300781 C 17.609375 12.9375 16.1875 13 15.5 13 C 14.117188 13 13 14.117188 13 15.5 L 13 32.5 C 13 33.882812 14.117188 35 15.5 35 C 16.882812 35 18 33.882812 18 32.5 L 18 21.140625 L 29.277344 33.769531 L 29.386719 33.910156 C 30.621094 35.132812 32.296875 35 32.5 35 C 33.882812 35 35 33.882812 35 32.5 L 35 15.5 C 35 14.117188 33.882812 13 32.5 13 Z M 32.5 13 "/>
</g>
</svg>
